<svg xmlns="http://www.w3.org/2000/svg" viewBox="0 0 200 160" width="100" height="80">
  <style>
    .logo-text { font-family: Arial, sans-serif; font-size: 16px; font-weight: bold; }
  </style>
  <path d="M100 20c-2 0-4 1-5 3L75 48l-25 5c-3 1-4 3-4 5 0 2 1 4 3 5l20 15-5 25c0 2 0 4 2 5 2 1 4 1 6 0l23-13 23 13c2 1 4 1 6 0 2-1 2-3 2-5l-5-25 20-15c2-1 3-3 3-5 0-2-1-4-4-5l-25-5-20-25c-1-2-3-3-5-3z" fill="#2c3e50"/>
  <text x="100" y="140" text-anchor="middle" class="logo-text" fill="#2c3e50">Quick Listing</text>
</svg>